<?xml version="1.0" encoding="UTF-8"?>
<!DOCTYPE svg PUBLIC "-//W3C//DTD SVG 1.1//EN" "http://www.w3.org/Graphics/SVG/1.1/DTD/svg11.dtd">
<!-- Creator: CorelDRAW X7 -->
<svg xmlns="http://www.w3.org/2000/svg" xml:space="preserve" width="297mm" height="210mm" version="1.1" style="shape-rendering:geometricPrecision; text-rendering:geometricPrecision; image-rendering:optimizeQuality; fill-rule:evenodd; clip-rule:evenodd"
viewBox="0 0 29700 21000"
 xmlns:xlink="http://www.w3.org/1999/xlink">
 <defs>
  <style type="text/css">
   <![CDATA[
    .fil0 {fill:#FEFEFE;fill-rule:nonzero}
   ]]>
  </style>
 </defs>
 <g id="Layer_x0020_1">
  <metadata id="CorelCorpID_0Corel-Layer"/>
  <g id="_2503000156320">
   <path class="fil0" d="M14858 5790l-7679 7679 -1879 -1879 5412 -5413 -351 -187c-970,-425 -1954,-544 -2937,-357 -987,191 -1838,646 -2563,1372 -205,204 -402,442 -592,714 -712,1011 -1015,2090 -906,3234 106,1147 610,2168 1508,3067 899,898 1937,1406 3114,1521 1178,116 2264,-187 3258,-909 245,-163 470,-347 674,-551 817,-817 1290,-1842 1422,-3070l24 -303 4 -283 2985 -241c112,1038 -41,2103 -466,3189 -426,1086 -1063,2049 -1907,2893 -217,218 -428,429 -633,633 -231,150 -395,259 -490,327 -1593,1130 -3332,1610 -5221,1436 -1889,-173 -3520,-946 -4898,-2324 -463,-463 -858,-954 -1188,-1474 -1198,-1825 -1542,-3857 -1028,-6093 245,-1062 589,-1889 1031,-2481 443,-593 855,-1079 1236,-1460 2028,-2029 4442,-2733 7236,-2118 1637,385 3002,1124 4095,2216 259,259 507,548 739,862z"/>
   <path class="fil0" d="M14907 15340l7678 -7678 1879 1879 -5412 5411 351 188c969,425 1953,544 2937,357 987,-191 1838,-647 2563,-1372 204,-204 402,-442 592,-714 712,-1011 1014,-2091 905,-3234 -105,-1147 -609,-2168 -1507,-3067 -899,-898 -1937,-1405 -3115,-1521 -1177,-116 -2263,187 -3257,909 -245,163 -470,347 -674,551 -817,817 -1290,1842 -1422,3070l-24 303 -4 283 -2985 241c-112,-1038 41,-2103 466,-3189 426,-1086 1062,-2049 1907,-2893 217,-218 428,-429 633,-633 231,-150 394,-259 490,-327 1593,-1130 3332,-1610 5221,-1436 1889,173 3519,946 4898,2324 463,463 858,954 1187,1474 1198,1825 1542,3856 1028,6093 -244,1062 -589,1889 -1031,2481 -442,592 -854,1079 -1235,1460 -2029,2029 -4442,2733 -7237,2117 -1637,-385 -3002,-1123 -4094,-2216 -259,-258 -507,-547 -738,-861z"/>
  </g>
 </g>
</svg>
